<svg xmlns="http://www.w3.org/2000/svg" version="1.1" xmlns:xlink="http://www.w3.org/1999/xlink" xmlns:svgjs="http://svgjs.dev/svgjs" width="2000" height="2215" viewBox="0 0 2000 2215"><g transform="matrix(1,0,0,1,-0.654001437603938,0.8967664257770593)"><svg viewBox="0 0 223 247" data-background-color="#ffffff" preserveAspectRatio="xMidYMid meet" height="2215" width="2000" xmlns="http://www.w3.org/2000/svg" xmlns:xlink="http://www.w3.org/1999/xlink"><g id="tight-bounds" transform="matrix(1,0,0,1,0.07292133671776924,-0.10000059014308249)"><svg viewBox="0 0 222.85415090469718 247.2" height="247.2" width="222.85415090469718"><g><svg viewBox="0 0 222.85415090469718 247.2" height="247.2" width="222.85415090469718"><g><svg viewBox="0 0 395.52 438.7288439685025" height="247.2" width="222.85415090469718"><g transform="matrix(1,0,0,1,0,254.3176504002324)"><svg viewBox="0 0 395.52 184.41119356827005" height="184.41119356827005" width="395.52"><g><svg viewBox="0 0 395.52 184.41119356827005" height="184.41119356827005" width="395.52"><g><svg viewBox="0 0 395.52 109.65235941066611" height="109.65235941066611" width="395.52"><g transform="matrix(1,0,0,1,0,0)"><svg width="395.52" viewBox="2.0250000953674316 -30.25 120.46499633789062 33.400001525878906" height="109.65235941066611" data-palette-color="#ffd700"><path d="M2.1 0.15L2.1-2.65Q2.15-2.95 2.1-3.25 2.05-3.55 2.15-3.9L2.15-3.9Q2.2-4 2.23-4.25 2.25-4.5 2.2-4.65L2.2-4.65 2.05-6.2Q2-6.6 2.05-7.03 2.1-7.45 2.1-7.9L2.1-7.9Q2.05-8.1 2.08-8.28 2.1-8.45 2.1-8.65L2.1-8.65Q2.05-9.2 2.18-9.8 2.3-10.4 2.2-10.95L2.2-10.95Q2.2-11 2.2-11.2 2.2-11.4 2.2-11.63 2.2-11.85 2.23-12.05 2.25-12.25 2.25-12.3L2.25-12.3Q2.3-13.25 2.25-14.3L2.25-14.3Q2.25-15.45 2.25-16.38 2.25-17.3 2.35-17.95L2.35-17.95Q2.4-18.2 2.4-18.57 2.4-18.95 2.4-19.35L2.4-19.35Q2.35-19.9 2.33-20.55 2.3-21.2 2.3-21.85L2.3-21.85Q2.3-23 2.27-23.88 2.25-24.75 2.2-25.9L2.2-25.9Q2.2-26.3 2.15-26.68 2.1-27.05 2.15-27.45L2.15-27.45Q2.15-27.55 2.15-27.95 2.15-28.35 2.2-28.45L2.2-28.45Q2.2-28.5 2.25-28.55L2.25-28.55Q2.4-28.7 2.5-28.7L2.5-28.7 6.1-28.7Q6.8-28.7 7.53-28.7 8.25-28.7 8.85-28.65L8.85-28.65Q9.4-28.6 10.03-28.4 10.65-28.2 11.05-28.05L11.05-28.05Q12.35-27.6 12.88-27.35 13.4-27.1 13.9-26.7L13.9-26.7Q14.35-26.35 14.85-26.05 15.35-25.75 15.85-25.38 16.35-25 16.82-24.48 17.3-23.95 17.7-23.15L17.7-23.15Q18-22.55 18.43-21.9 18.85-21.25 18.8-20.55L18.8-20.55Q19.05-19.8 19.07-19.25 19.1-18.7 19.35-18.25L19.35-18.25Q19.6-17.15 19.6-15.95 19.6-14.75 19.35-13.75L19.35-13.75Q19.4-13.05 19.23-12.35 19.05-11.65 19-10.95L19-10.95Q18.95-10.35 18.88-10 18.8-9.65 18.68-9.4 18.55-9.15 18.43-8.9 18.3-8.65 18.15-8.25L18.15-8.25Q18.1-8.1 17.9-7.78 17.7-7.45 17.48-7.1 17.25-6.75 17.03-6.43 16.8-6.1 16.75-5.95L16.75-5.95Q16.45-5.1 15.98-4.73 15.5-4.35 14.75-3.55L14.75-3.55Q14.6-3.4 14.28-3.08 13.95-2.75 13.58-2.4 13.2-2.05 12.85-1.78 12.5-1.5 12.3-1.35L12.3-1.35Q12.1-1.25 11.63-0.98 11.15-0.7 10.6-0.4 10.05-0.1 9.55 0.15 9.05 0.4 8.9 0.4L8.9 0.4Q8.4 0.45 7.6 0.5 6.8 0.55 5.95 0.6 5.1 0.65 4.3 0.68 3.5 0.7 3 0.7L3 0.7 2.45 0.7Q2.3 0.6 2.25 0.5 2.2 0.4 2.15 0.3L2.15 0.3Q2.1 0.2 2.1 0.15L2.1 0.15ZM5.85-9.4L5.85-9.4Q5.8-8.2 5.8-6.6 5.8-5 5.85-3.8L5.85-3.8Q7.3-3.9 8.25-4.28 9.2-4.65 10.25-5.45L10.25-5.45Q10.95-5.95 11.23-6.53 11.5-7.1 11.75-7.7L11.75-7.7Q12-8.15 12.18-8.75 12.35-9.35 12.55-9.9L12.55-9.9Q12.65-10.2 12.83-10.75 13-11.3 13-11.7L13-11.7Q13-11.95 13.13-12.68 13.25-13.4 13.2-13.65L13.2-13.65 13.2-14.55Q13.2-15.45 13.28-16.5 13.35-17.55 13.2-19.1L13.2-19.1 13.2-19.4Q13.1-20.7 12.5-21.55 11.9-22.4 11.05-23.4L11.05-23.4Q10.65-23.9 10.13-24.15 9.6-24.4 8.3-24.85L8.3-24.85Q7.9-25 7.2-25.08 6.5-25.15 5.95-25.2L5.95-25.2Q5.85-25 5.85-24.95L5.85-24.95 5.85-24.85 5.85-24.45Q5.75-23.9 5.78-23.08 5.8-22.25 5.8-21.55L5.8-21.55Q5.8-20.7 5.85-19.6 5.9-18.5 5.8-17.35L5.8-17.35Q5.8-17.1 5.78-16.8 5.75-16.5 5.75-16.25L5.75-16.25Q5.8-15.6 5.75-14.95 5.7-14.3 5.85-13.6L5.85-13.6Q5.75-12.55 5.83-11.5 5.9-10.45 5.85-9.4ZM45-21.55L45-21.55Q45.25-20.35 45.57-19.07 45.9-17.8 45.9-16.5L45.9-16.5Q46.1-15.9 46.12-15.08 46.15-14.25 46.15-13.7L46.15-13.7Q46.15-13.05 46.12-12.58 46.1-12.1 45.9-11.4L45.9-11.4Q45.9-10.8 45.85-10 45.8-9.2 45.5-8.6L45.5-8.6Q45.35-8.25 45.35-7.7 45.35-7.15 45.1-6.6L45.1-6.6 44.5-5.2Q44.15-4.35 43.72-3.53 43.3-2.7 42.9-2.15L42.9-2.15Q42.8-1.95 42.52-1.65 42.25-1.35 41.95-1 41.65-0.65 41.32-0.35 41-0.05 40.8 0.15L40.8 0.15Q40.35 0.6 39.9 0.98 39.45 1.35 38.85 1.6L38.85 1.6Q38.65 1.7 38.45 1.78 38.25 1.85 38 1.9L38 1.9Q37.35 2 36.8 2.08 36.25 2.15 35.7 2.2L35.7 2.2Q35.35 2.2 34.77 2.2 34.2 2.2 33.6 2.18 33 2.15 32.5 2.1 32 2.05 31.85 2L31.85 2Q30.95 1.65 30.17 1.3 29.4 0.95 28.75 0.25L28.75 0.25 26.65-1.5Q25.55-2.4 24.9-3.58 24.25-4.75 23.85-6.05L23.85-6.05Q23.6-6.65 23.55-7.15 23.5-7.65 23.25-8.05L23.25-8.05Q23-9.5 22.82-10.7 22.65-11.9 22.7-13.2L22.7-13.2Q22.75-13.8 22.75-14.55 22.75-15.3 22.85-16L22.85-16Q22.9-16.15 23-16.75 23.1-17.35 23.2-18.03 23.3-18.7 23.4-19.33 23.5-19.95 23.55-20.1L23.55-20.1Q24-21.55 24.47-22.73 24.95-23.9 25.75-24.8L25.75-24.8 27.2-26.4Q27.45-26.65 27.82-26.88 28.2-27.1 28.5-27.3L28.5-27.3 29.6-27.95Q30.1-28.3 31.05-28.58 32-28.85 32.65-28.95L32.65-28.95Q33.3-29.05 34.07-29.1 34.85-29.15 35.65-29.15L35.65-29.15Q36.35-29.15 36.82-29 37.3-28.85 37.9-28.65L37.9-28.65Q38.1-28.6 38.5-28.48 38.9-28.35 39.37-28.13 39.85-27.9 40.35-27.58 40.85-27.25 41.2-26.9L41.2-26.9Q41.5-26.55 42.07-26.18 42.65-25.8 42.9-25.35L42.9-25.35Q43-25.15 43.17-24.95 43.35-24.75 43.5-24.55L43.5-24.55Q43.9-23.95 44.45-23.05 45-22.15 45-21.55ZM34.05-10.3L34.55-10.3Q34.75-10.3 34.8-10.4 34.85-10.5 35.1-10.55L35.1-10.55Q35.45-10.6 35.6-10.88 35.75-11.15 36-11.4L36-11.4Q36.2-12.5 36.22-13.4 36.25-14.3 36.25-15.4L36.25-15.4Q36.25-15.8 36.05-16.18 35.85-16.55 35.4-16.75L35.4-16.75Q34.95-17 34.7-17 34.45-17 34.05-16.75L34.05-16.75Q33.95-16.75 33.85-16.7 33.75-16.65 33.65-16.6L33.65-16.6 33.45-16.5Q33.2-16.05 33-15.65 32.8-15.25 32.8-14.85L32.8-14.85 32.8-12.35Q32.9-11.55 33.2-11.1 33.5-10.65 34.05-10.3L34.05-10.3ZM62.45-10.25L62.45 1.15Q62.35 1.15 62.1 1.2 61.85 1.25 61.6 1.28 61.35 1.3 61.17 1.33 61 1.35 61.05 1.35L61.05 1.35 58.6 1.35Q57.8 1.25 57.27 1.23 56.75 1.2 56.35 1.25L56.35 1.25Q56.25 1.25 56.15 1.18 56.05 1.1 56 1.05L56 1.05Q55.95 0.6 55.97-0.3 56-1.2 56-1.7L56-1.7 56-2.4Q56.1-3.25 56.05-3.93 56-4.6 56-5.45L56-5.45 56-6.55Q56.25-7.65 56.12-8.85 56-10.05 56-11.05L56-11.05 56-23.8Q56-24.3 55.75-24.3L55.75-24.3Q55.05-24.35 54.65-24.35 54.25-24.35 53.55-24.3L53.55-24.3Q53.25-24.3 52.52-24.45 51.8-24.6 51.55-24.55L51.55-24.55Q51.3-24.45 50.52-24.55 49.75-24.65 49.5-24.65L49.5-24.65Q49.25-24.65 49.05-24.68 48.85-24.7 48.65-24.85L48.65-24.85 48.65-27.95Q48.85-28.05 49.25-28.05 49.65-28.05 50.05-28.05L50.05-28.05Q50.55-28.05 50.95-28.05 51.35-28.05 51.7-28.1L51.7-28.1Q51.8-28.1 52.4-28.05 53-28 53.4-27.95L53.4-27.95Q53.7-28.05 54-28.05L54-28.05Q54.75-28.1 55.4-28.05L55.4-28.05Q55.85-28 56.05-28.05 56.25-28.1 56.65-28.1L56.65-28.1 57.45-28.1 58.8-28Q59.3-28 59.8-28.03 60.3-28.05 60.8-28L60.8-28Q61.95-27.9 63.02-27.93 64.09-27.95 64.8-28.05L64.8-28.05Q65.15-28.05 66.05-27.95 66.95-27.85 67.8-27.8L67.8-27.8Q68.34-27.75 68.7-27.8 69.05-27.85 69.3-27.8L69.3-27.8 69.3-25.5Q69.3-25.3 69.34-25.25 69.4-25.2 69.3-24.8L69.3-24.8Q69.25-24.6 68.9-24.58 68.55-24.55 68.34-24.55L68.34-24.55Q67.05-24.35 65.97-24.4 64.9-24.45 63.9-24.45L63.9-24.45Q63.5-24.45 63.27-24.45 63.05-24.45 62.75-24.4L62.75-24.4 62.75-23.25Q62.75-22.85 62.72-22.05 62.7-21.25 62.7-20.8L62.7-20.8Q62.7-20.6 62.7-20.5 62.7-20.4 62.67-20.23 62.65-20.05 62.6-19.73 62.55-19.4 62.4-18.8L62.4-18.8Q62.4-17.95 62.4-17.35 62.4-16.75 62.42-16.25 62.45-15.75 62.45-15.28 62.45-14.8 62.45-14.15L62.45-14.15 62.45-13.65Q62.25-12.8 62.35-11.95 62.45-11.1 62.45-10.25L62.45-10.25ZM78.19-4.15L78.19-4.15Q78.19-4.05 78.19-3.78 78.19-3.5 78.19-3.18 78.19-2.85 78.19-2.55 78.19-2.25 78.19-2.1L78.19-2.1Q78.19-0.75 78.22-0.25 78.24 0.25 78.24 0.95L78.24 0.95Q78.24 1.1 78.07 1.23 77.89 1.35 77.69 1.4L77.69 1.4 74.49 1.4 74.49 0.85 74.24-2.7Q74.24-3.65 74.22-4.55 74.19-5.45 74.14-6.35L74.14-6.35 74.14-7.7Q74.14-8.4 74.09-9.08 74.04-9.75 74.14-10.45L74.14-10.45 74.14-12.15Q74.14-13.05 74.12-13.93 74.09-14.8 74.04-15.65L74.04-15.65Q74.04-15.9 74.07-16.07 74.09-16.25 74.09-16.5L74.09-16.5Q74.09-17.55 74.07-18.4 74.04-19.25 74.04-20.08 74.04-20.9 74.04-21.8 74.04-22.7 73.99-23.8L73.99-23.8 73.99-25.2Q73.94-25.75 73.92-26.33 73.89-26.9 73.89-27.45L73.89-27.45 73.89-27.6Q73.89-27.8 73.94-27.95L73.94-27.95Q73.99-28 74.49-28.1L74.49-28.1Q74.74-28.15 75.14-28.1L75.14-28.1Q75.49-28 75.99-28.03 76.49-28.05 77.09-28.05L77.09-28.05Q77.59-28.05 77.92-27.95 78.24-27.85 78.24-27.75L78.24-27.75 78.24-19.95Q78.19-19.55 78.22-19.18 78.24-18.8 78.19-18.4L78.19-18.4Q78.14-17.85 78.17-17.3 78.19-16.75 78.19-16.2L78.19-16.2 78.19-15.35Q78.19-15.2 78.19-15.03 78.19-14.85 78.14-14.65L78.14-14.65Q78.09-14.55 78.09-14.28 78.09-14 78.12-13.7 78.14-13.4 78.17-13.1 78.19-12.8 78.19-12.7L78.19-12.7Q78.24-11.35 78.17-11.1 78.09-10.85 78.09-10.7L78.09-10.7Q78.04-10 78.12-9.3 78.19-8.6 78.19-7.9L78.19-7.9Q78.24-6.95 78.22-6.03 78.19-5.1 78.19-4.15ZM91.14-15.2L88.89-15.1Q88.69-15.05 88.37-15.05 88.04-15.05 87.84-15L87.84-15 87.09-14.95Q86.99-14.95 86.87-14.93 86.74-14.9 86.64-14.9L86.64-14.9Q86.74-14.2 86.64-13.65 86.54-13.1 86.59-11.9L86.59-11.9Q86.64-10.7 86.49-9.75 86.34-8.8 86.39-7.65L86.39-7.65Q86.44-6.95 86.39-6.1 86.34-5.25 86.24-4.9L86.24-4.9 86.09-1.35 86.09 0.35Q85.54 0.45 85.29 0.45 85.04 0.45 84.79 0.43 84.54 0.4 84.22 0.4 83.89 0.4 83.24 0.5L83.24 0.5Q82.54 0.65 82.37 0.65 82.19 0.65 81.94 0.65L81.94 0.65Q81.94 0.2 81.92 0.1 81.89 0 81.94-0.5L81.94-0.5Q81.89-0.9 81.84-1.63 81.79-2.35 81.74-3.18 81.69-4 81.69-4.83 81.69-5.65 81.74-6.25L81.74-6.25Q81.74-6.65 81.72-7.2 81.69-7.75 81.64-8.3L81.64-8.3Q81.59-8.5 81.64-8.8L81.64-8.8Q81.64-8.85 81.64-9.63 81.64-10.4 81.64-11.3 81.64-12.2 81.64-12.95 81.64-13.7 81.64-13.8L81.64-13.8Q81.64-13.95 81.59-14.48 81.54-15 81.52-15.6 81.49-16.2 81.49-16.7 81.49-17.2 81.49-17.35L81.49-17.35Q81.54-18.1 81.57-18.7 81.59-19.3 81.57-19.85 81.54-20.4 81.49-21 81.44-21.6 81.29-22.45L81.29-22.45Q81.24-22.65 81.27-23.23 81.29-23.8 81.32-24.48 81.34-25.15 81.37-25.73 81.39-26.3 81.39-26.5L81.39-26.5Q81.39-26.75 81.44-26.98 81.49-27.2 81.39-27.55L81.39-27.55 81.59-27.9 86.09-27.9Q88.29-27.9 89.12-27.93 89.94-27.95 90.49-27.9L90.49-27.9Q91.94-27.8 93.07-27.8 94.19-27.8 95.24-27.9L95.24-27.9 97.99-27.9Q98.24-27.5 98.12-27.08 97.99-26.65 97.99-26.25L97.99-26.25 97.99-24.55 97.69-24.55Q97.19-24.6 96.69-24.43 96.19-24.25 95.69-24.35L95.69-24.35Q95.14-24.45 94.24-24.35 93.34-24.25 92.79-24.25L92.79-24.25 88.99-24.05Q88.49-24.05 87.99-24.08 87.49-24.1 86.94-24L86.94-24Q86.94-23.55 86.97-23.3 86.99-23.05 86.99-22.55L86.99-22.55Q87.04-22 87.02-21.25 86.99-20.5 87.04-19.95L87.04-19.95 87.24-18.75Q87.29-18.75 87.59-18.73 87.89-18.7 88.27-18.7 88.64-18.7 88.94-18.7 89.24-18.7 89.29-18.7L89.29-18.7Q89.54-18.75 89.72-18.7 89.89-18.65 90.09-18.65L90.09-18.65 91.19-18.55Q91.69-18.6 92.27-18.63 92.84-18.65 93.24-18.65L93.24-18.65Q93.34-18.65 93.47-18.68 93.59-18.7 93.69-18.65L93.69-18.65Q93.79-18.6 93.84-18.38 93.89-18.15 93.84-17.95L93.84-17.95 93.89-17.3Q93.94-17.1 93.89-16.8 93.84-16.5 93.89-16.3L93.89-16.3 93.84-15.75 93.84-15.45Q93.64-15.25 93.69-15.23 93.74-15.2 93.49-15.2L93.49-15.2Q93.19-15.2 92.52-15.18 91.84-15.15 91.14-15.2L91.14-15.2ZM107.54-23.55L107.54-23.55Q107.94-23.15 108.36-22.73 108.79-22.3 109.19-21.8L109.19-21.8Q109.39-21.4 109.61-21.13 109.84-20.85 110.14-20.45L110.14-20.45 111.14-19.4 111.69-19.9 111.94-20.3Q112.19-20.65 112.71-21.33 113.24-22 113.94-22.85L113.94-22.85 115.54-24.85Q115.49-24.8 115.61-25 115.74-25.2 115.89-25.43 116.04-25.65 116.16-25.83 116.29-26 116.24-25.95L116.24-25.95Q116.54-26.25 116.81-26.75 117.09-27.25 117.49-27.7L117.49-27.7Q117.74-28.05 117.94-28.43 118.14-28.8 118.39-29.15L118.39-29.15 118.79-29.95Q119.04-30.2 119.09-30.23 119.14-30.25 119.34-30.25L119.34-30.25Q120.04-29.75 120.51-29.23 120.99-28.7 121.64-28.1L121.64-28.1 121.89-27.8Q122.09-27.55 122.24-27.35 122.39-27.15 122.49-26.9L122.49-26.9Q122.44-26.8 122.26-26.55 122.09-26.3 121.89-26.05L121.89-26.05 119.99-23.25Q119.49-22.4 118.91-21.73 118.34-21.05 117.74-20.45L117.74-20.45Q117.24-19.95 116.81-19.4 116.39-18.85 115.99-18.45L115.99-18.45Q115.39-17.6 114.76-16.93 114.14-16.25 113.69-15.65L113.69-15.65 113.49-15.4Q113.44-14.7 113.44-13.93 113.44-13.15 113.46-12.48 113.49-11.8 113.54-11.28 113.59-10.75 113.59-10.45L113.59-10.45Q113.59-10.35 113.56-10.2 113.54-10.05 113.54-9.95L113.54-9.95 113.54-9.65Q113.64-8.3 113.66-7.38 113.69-6.45 113.69-5.75L113.69-5.75Q113.69-4.65 113.66-3.75 113.64-2.85 113.79-1.75L113.79-1.75Q113.79-1.05 113.81 0 113.84 1.05 113.94 1.8L113.94 1.8 113.94 2.65Q113.89 2.85 113.41 2.88 112.94 2.9 112.84 3L112.84 3Q112.39 3.15 111.54 3.15 110.69 3.15 110.04 3.05L110.04 3.05Q109.94 2.8 109.84 2.73 109.74 2.65 109.64 2.45L109.64 2.45 109.64 1.25Q109.64 0.85 109.66 0.38 109.69-0.1 109.64-0.9L109.64-0.9Q109.64-1.05 109.61-1.3 109.59-1.55 109.56-1.85 109.54-2.15 109.54-2.43 109.54-2.7 109.54-2.8L109.54-2.8Q109.64-3.95 109.71-4.8 109.79-5.65 109.74-6.6L109.74-6.6Q109.69-7.55 109.79-8.22 109.89-8.9 109.94-9.15L109.94-9.15 109.94-10.8Q109.89-11.35 109.84-11.98 109.79-12.6 109.84-12.65L109.84-12.65Q109.89-12.75 109.86-12.88 109.84-13 109.84-13.1L109.84-13.1Q109.84-13.35 109.84-13.75 109.84-14.15 109.89-14.35L109.89-14.35Q109.89-14.75 109.74-14.95 109.59-15.15 109.34-15.4L109.34-15.4Q109.14-15.65 108.91-15.85 108.69-16.05 108.59-16.25L108.59-16.25 107.84-17Q107.44-17.25 106.84-18.18 106.24-19.1 105.54-19.75L105.54-19.75Q105.39-19.9 104.99-20.35 104.59-20.8 104.16-21.33 103.74-21.85 103.36-22.28 102.99-22.7 102.94-22.8L102.94-22.8Q102.84-22.85 102.71-23.05 102.59-23.25 102.44-23.48 102.29-23.7 102.16-23.9 102.04-24.1 102.04-24.15L102.04-24.15Q101.79-24.5 101.56-24.73 101.34-24.95 101.14-25.3L101.14-25.3 99.89-27.2 99.89-27.45Q100.34-27.7 100.61-28.05 100.89-28.4 101.29-28.65L101.29-28.65Q101.54-28.85 101.86-29.18 102.19-29.5 102.39-29.7L102.39-29.7 103.04-29.7Q103.24-29.3 103.56-28.9 103.89-28.5 104.09-28.1L104.09-28.1Q104.14-27.95 104.31-27.8 104.49-27.65 104.49-27.55L104.49-27.55Q104.59-27.5 104.91-27.13 105.24-26.75 105.34-26.55L105.34-26.55 106.09-25.5Q106.34-25.2 106.46-25.03 106.59-24.85 106.84-24.45L106.84-24.45Q106.94-24.35 107.16-24 107.39-23.65 107.54-23.55Z" opacity="1" transform="matrix(1,0,0,1,0,0)" fill="#ffd700" class="undefined-text-0" data-fill-palette-color="primary" id="text-0"></path></svg></g></svg></g><g transform="matrix(1,0,0,1,75.54432000000001,135.5386498108985)"><svg viewBox="0 0 244.43135999999996 48.87254375737152" height="48.87254375737152" width="244.43135999999996"><g transform="matrix(1,0,0,1,0,0)"><svg width="244.43135999999996" viewBox="3 -35 178.0399932861328 35.599998474121094" height="48.87254375737152" data-palette-color="#ffd700"><path d="M44.2 0L33.25 0 33.25-12.4Q33.25-14.7 33.43-17.13 33.6-19.55 33.8-21.2 34-22.85 34.05-23.3L34.05-23.3 33.85-23.3 27.5 0 18.85 0 12.45-23.25 12.25-23.25Q12.3-22.8 12.53-21.18 12.75-19.55 12.95-17.13 13.15-14.7 13.15-12.4L13.15-12.4 13.15 0 3 0 3-34.4 18.6-34.4 23.8-14.55 24-14.55 29.15-34.4 44.2-34.4 44.2 0ZM85.15-13.85Q85.15-6.8 80.7-3.1 76.25 0.6 68.05 0.6L68.05 0.6Q59.85 0.6 55.37-3.1 50.9-6.8 50.9-13.85L50.9-13.85 50.9-34.4 61.95-34.4 61.95-14Q61.95-11.1 63.5-9.38 65.05-7.65 68-7.65L68-7.65Q70.95-7.65 72.52-9.4 74.1-11.15 74.1-14L74.1-14 74.1-34.4 85.15-34.4 85.15-13.85ZM107-35Q113.6-35 117.85-32.33 122.1-29.65 122.2-24.4L122.2-24.4 122.2-23.8 111.85-23.8 111.85-24Q111.85-25.5 110.75-26.5 109.65-27.5 107.4-27.5L107.4-27.5Q105.2-27.5 104.02-26.85 102.85-26.2 102.85-25.25L102.85-25.25Q102.85-23.9 104.45-23.25 106.05-22.6 109.6-21.9L109.6-21.9Q113.75-21.05 116.42-20.13 119.1-19.2 121.1-17.1 123.1-15 123.15-11.4L123.15-11.4Q123.15-5.3 119.02-2.35 114.9 0.6 108 0.6L108 0.6Q99.95 0.6 95.47-2.1 91-4.8 91-11.65L91-11.65 101.45-11.65Q101.45-9.05 102.8-8.18 104.15-7.3 107-7.3L107-7.3Q109.1-7.3 110.47-7.75 111.85-8.2 111.85-9.6L111.85-9.6Q111.85-10.85 110.32-11.48 108.8-12.1 105.35-12.8L105.35-12.8Q101.15-13.7 98.4-14.68 95.65-15.65 93.6-17.9 91.55-20.15 91.55-24L91.55-24Q91.55-29.65 95.92-32.33 100.3-35 107-35L107-35ZM140.19 0L129.14 0 129.14-34.4 140.19-34.4 140.19 0ZM164.49-35Q172.14-35 176.59-31.18 181.04-27.35 181.04-20.25L181.04-20.25 170.49-20.25Q170.49-23.25 168.92-25 167.34-26.75 164.44-26.75L164.44-26.75Q161.09-26.75 159.52-24.65 157.94-22.55 157.94-18.8L157.94-18.8 157.94-15.6Q157.94-11.9 159.52-9.78 161.09-7.65 164.34-7.65L164.34-7.65Q167.54-7.65 169.19-9.3 170.84-10.95 170.84-13.95L170.84-13.95 181.04-13.95Q181.04-6.9 176.72-3.15 172.39 0.6 164.49 0.6L164.49 0.6Q155.69 0.6 151.17-3.9 146.64-8.4 146.64-17.2L146.64-17.2Q146.64-26 151.17-30.5 155.69-35 164.49-35L164.49-35Z" opacity="1" transform="matrix(1,0,0,1,0,0)" fill="#ffd700" class="undefined-text-1" data-fill-palette-color="secondary" id="text-1"></path></svg></g></svg></g></svg></g></svg></g><g transform="matrix(1,0,0,1,75.54432,0)"><svg viewBox="0 0 244.43135999999998 228.43135999999998" height="228.43135999999998" width="244.43135999999998"><g><svg xmlns="http://www.w3.org/2000/svg" xmlns:xlink="http://www.w3.org/1999/xlink" version="1.1" x="8" y="0" viewBox="0.5 0.5 99 99" enable-background="new 0 0 100 100" xml:space="preserve" height="228.43135999999998" width="228.43135999999998" class="icon-icon-0" data-fill-palette-color="accent" id="icon-0"><g fill="#ffd700" data-fill-palette-color="accent"><g fill="#ffd700" data-fill-palette-color="accent"><path d="M50 0.5C22.662 0.5 0.5 22.662 0.5 50S22.662 99.5 50 99.5 99.5 77.338 99.5 50 77.338 0.5 50 0.5zM24.258 63.971c0.12 0.541 0.099 1.372 0.42 2.266 0.145 0.451 0.304 0.936 0.474 1.449 0.117 0.534 0.491 0.998 0.752 1.523 0.304 0.505 0.538 1.081 0.986 1.523l1.211 1.428 1.436 1.215c0.442 0.445 1.018 0.675 1.522 0.982 0.526 0.262 0.989 0.632 1.527 0.752 0.516 0.166 1.003 0.326 1.456 0.475 0.897 0.318 1.71 0.297 2.254 0.417 0.554 0.077 0.872 0.122 0.872 0.122s-0.318-0.018-0.876-0.053c-0.548-0.084-1.385 0.047-2.308-0.262-0.467-0.139-0.968-0.283-1.499-0.441-0.554-0.106-1.034-0.467-1.583-0.725-0.526-0.298-1.127-0.52-1.597-0.965l-1.509-1.212-1.211-1.51c-0.445-0.465-0.671-1.065-0.969-1.593-0.254-0.551-0.619-1.028-0.729-1.583-0.156-0.538-0.308-1.042-0.443-1.509-0.307-0.924-0.173-1.746-0.261-2.297-0.034-0.559-0.051-0.879-0.051-0.879S24.18 63.418 24.258 63.971zM16.417 59.764c0.248 1.081 0.195 2.746 0.859 4.53 0.301 0.892 0.63 1.858 0.976 2.883 0.24 1.063 1.007 1.978 1.517 3.033 0.604 1.01 1.06 2.166 1.946 3.054 0.795 0.946 1.605 1.906 2.411 2.868 0.965 0.806 1.926 1.615 2.876 2.407 0.887 0.888 2.042 1.339 3.056 1.943 1.057 0.513 1.969 1.269 3.036 1.516 1.029 0.347 2.003 0.673 2.901 0.977 1.788 0.657 3.42 0.604 4.509 0.852 1.109 0.158 1.742 0.251 1.742 0.251s-0.636-0.035-1.753-0.099c-0.562-0.033-1.243-0.071-2.024-0.117-0.788-0.035-1.683-0.055-2.597-0.393-0.933-0.267-1.943-0.552-3.011-0.854-1.113-0.205-2.084-0.915-3.177-1.441-1.053-0.604-2.255-1.062-3.188-1.954-0.993-0.805-2-1.627-3.01-2.445-0.82-1.008-1.64-2.016-2.445-3.008-0.894-0.934-1.356-2.132-1.961-3.182-0.523-1.095-1.234-2.061-1.446-3.184-0.304-1.071-0.594-2.09-0.858-3.025-0.339-0.922-0.357-1.801-0.392-2.583-0.043-0.776-0.082-1.455-0.113-2.015-0.07-1.115-0.104-1.756-0.104-1.756S16.257 58.652 16.417 59.764zM43.662 91.576c-0.848 0.033-1.873-0.014-3.042-0.16-1.176-0.107-2.516-0.215-3.926-0.593-0.714-0.163-1.456-0.328-2.223-0.501-0.75-0.244-1.522-0.5-2.318-0.764-1.626-0.449-3.194-1.293-4.866-2.051-1.565-0.957-3.265-1.822-4.777-3.027-1.608-1.078-3.025-2.444-4.495-3.741-1.298-1.474-2.668-2.89-3.746-4.494-1.205-1.511-2.078-3.21-3.036-4.771-0.757-1.672-1.598-3.244-2.05-4.865-0.576-1.58-0.999-3.104-1.268-4.541-0.378-1.405-0.488-2.756-0.594-3.933-0.152-1.181-0.198-2.196-0.162-3.038C7.186 53.409 7.2 52.448 7.2 52.448s0.112 0.954 0.307 2.627c0.053 0.841 0.208 1.852 0.478 2.979 0.233 1.133 0.473 2.405 0.915 3.762 0.35 1.382 0.855 2.83 1.509 4.317 0.53 1.538 1.474 2.982 2.201 4.587 0.958 1.481 1.82 3.094 3.011 4.516 1.061 1.517 2.406 2.839 3.668 4.221 1.389 1.262 2.708 2.605 4.227 3.665 1.424 1.19 3.036 2.05 4.516 3.007 1.604 0.725 3.053 1.665 4.59 2.194 0.752 0.304 1.483 0.601 2.194 0.888 0.731 0.216 1.441 0.423 2.124 0.623 1.354 0.441 2.636 0.682 3.774 0.914 1.135 0.27 2.135 0.424 2.972 0.479 1.668 0.193 2.623 0.308 2.623 0.308S45.347 91.548 43.662 91.576zM50 69.541c-10.792 0-19.542-8.749-19.542-19.541 0-10.792 8.749-19.542 19.542-19.542 10.792 0 19.541 8.749 19.541 19.542C69.541 60.792 60.792 69.541 50 69.541zM74.361 34.568c-0.117-0.542-0.09-1.371-0.396-2.269-0.142-0.453-0.297-0.94-0.457-1.456-0.109-0.534-0.482-0.999-0.736-1.53-0.299-0.509-0.525-1.087-0.969-1.532l-1.199-1.443-1.418-1.229c-0.438-0.452-1.015-0.689-1.516-0.997-0.523-0.273-0.979-0.646-1.518-0.771-0.516-0.174-1-0.34-1.452-0.491-0.894-0.327-1.707-0.315-2.251-0.439-0.551-0.083-0.869-0.133-0.869-0.133s0.318 0.021 0.877 0.061c0.548 0.096 1.385-0.028 2.305 0.286 0.461 0.142 0.965 0.297 1.495 0.459 0.55 0.112 1.027 0.48 1.571 0.739 0.527 0.303 1.124 0.537 1.587 0.982l1.499 1.229 1.193 1.522c0.442 0.469 0.66 1.074 0.951 1.605 0.25 0.551 0.606 1.031 0.711 1.589 0.151 0.538 0.295 1.042 0.426 1.512 0.297 0.926 0.154 1.746 0.238 2.301 0.025 0.56 0.041 0.878 0.041 0.878S74.432 35.124 74.361 34.568zM82.156 38.858c-0.237-1.085-0.168-2.75-0.811-4.542-0.293-0.897-0.609-1.864-0.945-2.895-0.23-1.063-0.986-1.986-1.484-3.045-0.589-1.019-1.035-2.177-1.915-3.076-0.784-0.954-1.584-1.924-2.378-2.893-0.955-0.821-1.912-1.633-2.852-2.438-0.877-0.894-2.027-1.361-3.031-1.976-1.055-0.52-1.958-1.286-3.024-1.544-1.024-0.357-1.993-0.696-2.889-1.007-1.785-0.674-3.412-0.643-4.502-0.901-1.104-0.169-1.738-0.268-1.738-0.268s0.638 0.042 1.753 0.12c0.563 0.037 1.241 0.082 2.021 0.133 0.789 0.046 1.684 0.071 2.596 0.421 0.93 0.275 1.936 0.571 3.002 0.886 1.109 0.218 2.074 0.937 3.159 1.473 1.046 0.615 2.243 1.085 3.167 1.99 0.98 0.816 1.98 1.647 2.98 2.475 0.81 1.017 1.623 2.036 2.416 3.036 0.889 0.94 1.336 2.143 1.928 3.202 0.517 1.1 1.216 2.071 1.414 3.194 0.291 1.077 0.566 2.094 0.826 3.036 0.332 0.924 0.34 1.81 0.363 2.585 0.035 0.781 0.066 1.459 0.096 2.019 0.053 1.116 0.082 1.754 0.082 1.754S82.305 39.967 82.156 38.858zM91.294 46.268c0 0-0.103-0.957-0.278-2.629-0.045-0.841-0.19-1.851-0.445-2.982-0.221-1.138-0.448-2.411-0.877-3.772-0.332-1.385-0.823-2.838-1.463-4.337-0.512-1.541-1.441-2.997-2.151-4.608-0.938-1.491-1.784-3.109-2.961-4.544-1.048-1.529-2.378-2.865-3.626-4.261-1.374-1.272-2.676-2.632-4.188-3.707-1.41-1.205-3.015-2.081-4.484-3.057-1.594-0.742-3.036-1.696-4.563-2.245-0.752-0.311-1.479-0.615-2.188-0.909-0.731-0.222-1.438-0.438-2.115-0.642-1.352-0.457-2.629-0.71-3.764-0.955-1.133-0.282-2.131-0.445-2.969-0.508-1.666-0.213-2.619-0.335-2.619-0.335s0.961-0.008 2.646-0.016c0.85-0.028 1.873 0.028 3.042 0.19 1.174 0.12 2.513 0.24 3.92 0.636 0.711 0.167 1.448 0.344 2.215 0.523 0.75 0.254 1.521 0.516 2.312 0.788 1.619 0.466 3.182 1.325 4.846 2.1 1.551 0.975 3.243 1.858 4.741 3.082 1.598 1.094 3 2.473 4.457 3.79 1.28 1.485 2.635 2.913 3.696 4.53 1.19 1.521 2.041 3.234 2.984 4.806 0.738 1.677 1.561 3.258 2 4.887 0.559 1.583 0.965 3.109 1.221 4.552 0.363 1.414 0.455 2.761 0.549 3.939 0.14 1.182 0.174 2.198 0.133 3.041C91.318 45.307 91.294 46.268 91.294 46.268z" fill="#ffd700" data-fill-palette-color="accent"></path><circle cx="50" cy="50" r="2.6" fill="#ffd700" data-fill-palette-color="accent"></circle></g></g></svg></g></svg></g><g></g></svg></g></svg></g><defs><mask id="762df744-dd49-40a0-888b-fcd92bb86f81"><rect width="640" height="400" fill="white"></rect><rect width="348.05760000000004" height="162.4103524622913" fill="black" x="145.97119999999998" y="118.79482376885434" id="transform-me" transform="matrix(1,0,0,1,-160,-20)"></rect></mask><mask id="01514375-727f-4914-9ea7-0acb3ffdc7a0"><rect width="640" height="400" fill="white"></rect><rect width="348.05760000000004" height="188.9470194949879" fill="black" x="145.97119999999998" y="105.52649025250605" id="transform-me" transform="matrix(1,0,0,1,-160,-20)"></rect></mask><mask id="290537c6-ce3a-47c4-b71a-abd233231e94"><rect width="640" height="400" fill="white"></rect><rect width="348.05760000000004" height="188.9470194949879" fill="black" x="145.97119999999998" y="105.52649025250605" id="transform-me" transform="matrix(1,0,0,1,-160,-20)"></rect></mask><mask id="fe7f5319-7527-4847-831f-2bcca313eac9"><rect width="640" height="400" fill="white"></rect><rect width="174.02880000000002" height="94.47350974749395" fill="black" x="232.98559999999998" y="152.76324512625303" id="transform-me" transform="matrix(1,0,0,1,-160,-20)"></rect></mask><mask id="0a91b253-4cfa-49d8-a33e-817f19edb2f4"><rect width="640" height="400" fill="white"></rect><rect width="174.02880000000002" height="94.47350974749395" fill="black" x="232.98559999999998" y="152.76324512625303" id="transform-me" transform="matrix(1,0,0,1,-160,-20)"></rect></mask><mask id="5d6e69ff-c46f-442a-99dd-fbc160639cc7"><rect width="640" height="400" fill="white"></rect><rect width="435.072" height="236.18377436873487" fill="black" x="102.464" y="81.90811281563256" id="transform-me" transform="matrix(1,0,0,1,-160,-20)"></rect></mask><mask id="184d45fa-f373-44c4-951d-1ed5747d6b1b"><rect width="640" height="400" fill="white"></rect><rect width="348.05760000000004" height="188.9470194949879" fill="black" x="145.97119999999998" y="105.52649025250605" id="transform-me" transform="matrix(1,0,0,1,-160,-20)"></rect></mask><mask id="f3559b24-bc76-42a4-9ad3-0ebbdddc0359"><rect width="640" height="400" fill="white"></rect><rect width="348.05760000000004" height="188.9470194949879" fill="black" x="145.97119999999998" y="105.52649025250605" id="transform-me" transform="matrix(1,0,0,1,-160,-20)"></rect></mask></defs></svg><rect width="222.85415090469718" height="247.2" fill="none" stroke="none" visibility="hidden"></rect></g></svg></g></svg>